<!-- Copyright © 2000–2024 JetBrains s.r.o. -->
<svg width="20" height="20" viewBox="0 0 20 20" xmlns="http://www.w3.org/2000/svg">
  <path fill="#6C707E" d="M14.693 7h-1.136a.307.307 0 0 0-.307.307v1.136c0 .17.137.307.307.307h1.136c.17 0 .307-.137.307-.307V7.307A.307.307 0 0 0 14.693 7m-2.26 2.25h-1.116a.317.317 0 0 0-.317.317v1.116c0 .175.142.317.317.317h1.116a.317.317 0 0 0 .317-.317V9.567a.317.317 0 0 0-.317-.317M7 10.75a1.75 1.75 0 1 0 0-3.5 1.75 1.75 0 0 0 0 3.5"/>
  <path fill="none" stroke="#6C707E" stroke-miterlimit="10" stroke-width="1.5" d="M9.75 0c0 2.221 1.321 2.362.25 5.5"/>
  <path fill="none" stroke="#6C707E" stroke-linecap="round" stroke-miterlimit="10" stroke-width="1.5" d="M10 13.375c4.547 0 4.649 2.875 7.162 2.875.953 0 2.088-.408 2.088-2.351 0-.793-1.137-4.938-2.08-7.154-.694-1.629-1.96-1.996-3.136-1.996-1.879 0-2.028.958-4.033.958s-2.155-.958-4.033-.958c-1.177 0-2.443.366-3.136 1.996-.944 2.216-2.08 6.361-2.08 7.154 0 1.943 1.136 2.351 2.088 2.351 2.513 0 2.614-2.875 7.162-2.875z"/>
</svg>
