<!-- Copyright © 2000–2024 JetBrains s.r.o. -->
<svg width="16" height="16" viewBox="0 0 16 16" xmlns="http://www.w3.org/2000/svg">
  <path fill="none" stroke="#6C707E" stroke-miterlimit="10" d="M13.807 13.5c-1.092 0-1.626-.655-2.143-1.289C11.009 11.408 10.268 10.5 8 10.5s-3.009.908-3.663 1.71c-.518.635-1.052 1.29-2.144 1.29C1.421 13.5.5 13.146.5 11.456c0-.689 1.234-5.45 1.786-6.419C2.794 4.146 3.854 3.5 4.808 3.5c.573 0 1.011.247 1.396.466.463.263.94.534 1.795.534s1.332-.271 1.794-.534c.387-.219.824-.466 1.397-.466.954 0 2.015.646 2.522 1.538.552.968 1.786 5.729 1.786 6.418 0 1.689-.921 2.044-1.693 2.044z"/>
  <path fill="#6C707E" d="M11.75 6h-.927a.25.25 0 0 0-.25.25v.927c0 .138.112.25.25.25h.927a.25.25 0 0 0 .25-.25V6.25a.25.25 0 0 0-.25-.25m-1.622 1.622H9.25a.25.25 0 0 0-.25.25v.878c0 .138.112.25.25.25h.878a.25.25 0 0 0 .25-.25v-.878a.25.25 0 0 0-.25-.25M5.5 9a1.5 1.5 0 1 0 0-3 1.5 1.5 0 0 0 0 3"/>
  <path fill="none" stroke="#6C707E" stroke-miterlimit="10" d="M7.519 0c0 1.817 1.338 1.933.481 4.5"/>
</svg>
