<svg viewBox="0 0 20 20" width="20" height="20" xmlns="http://www.w3.org/2000/svg">
  <path fill="none" stroke="#ced0d6" stroke-miterlimit="10" d="M9.5 0c0 2.22 1.57 2.36.5 5.5"/>
  <path fill="none" stroke="#ced0d6" stroke-linecap="round" stroke-miterlimit="10" d="M15.79 16.04c.44.28.93.46 1.57.46.98 0 2.14-.43 2.14-2.45 0-.83-1.17-5.15-2.14-7.46-.71-1.7-2.01-2.08-3.22-2.08-1.93 0-2.08 1-4.14 1s-2.21-1-4.14-1c-1.21 0-2.51.38-3.22 2.08C1.67 8.9.5 13.23.5 14.05c0 2.03 1.17 2.45 2.14 2.45.34 0 .62-.07.89-.16"/>
  <path fill="#253627" stroke="#208a3c" stroke-miterlimit="10" d="M8.5 16c0 .83-.67 1.5-1.5 1.5s-1.5-.67-1.5-1.5v-6c0-.83.67-1.5 1.5-1.5s1.5.67 1.5 1.5v6Zm2.37 1.21c-.45.34-1.05.39-1.55.13s-.81-.77-.81-1.34v-6c0-.57.32-1.08.81-1.34s1.1-.21 1.55.13l4.03 3a1.506 1.506 0 0 1 0 2.42l-4.03 3Z"/>
</svg>
