<!-- Copyright © 2000–2024 JetBrains s.r.o. -->
<svg width="20" height="20" viewBox="0 0 20 20" xmlns="http://www.w3.org/2000/svg">
  <path fill="#CED0D6" fill-rule="evenodd" d="M16.38 11.47a6.25 6.25 0 0 1-3.47 4.22l-1-1.12-1.83 1.7a6.3 6.3 0 0 1-4.96-2.54c.18.06.37.1.56.11.28.01.56-.1.56-.56V8.67c.02-.41-.3-.77-.71-.79-.78-.03-1.4 1.44-1.64 2.17-.02-1.83.77-3.58 2.16-4.78.9-.78 2-1.29 3.18-1.47-.75.38-1.26 1.11-1.34 1.95 0 1.08.66.95.85.79v6.21c.14.36.49.6.88.6.59-.11 1.15-.37 1.63-.74V7.58c-.04-.55-.33-1.04-.79-1.34.45-.06.9.04 1.27.3a6.27 6.27 0 0 1 3.84-2.16 5 5 0 0 0-1.82 3.38v4.95c.68.66 1.72-.29 2.63-1.23z"/>
  <path fill="none" stroke="#CED0D6" stroke-linecap="round" stroke-miterlimit="10" stroke-width="1.5" d="M6.82 18.67c.99.37 2.06.58 3.18.58 5.1 0 9.25-4.15 9.25-9.25S15.1.75 10 .75.75 4.9.75 10c0 1.12.21 2.18.58 3.18"/>
  <path fill="none" stroke="#DB5C5C" stroke-miterlimit="10" stroke-width="1.5" d="M2.5 19.25a1.75 1.75 0 1 0 0-3.5 1.75 1.75 0 0 0 0 3.5Z"/>
</svg>
