<svg viewBox="0 0 20 20" width="20" height="20" xmlns="http://www.w3.org/2000/svg">
  <path fill="none" stroke="#6c707e" stroke-miterlimit="10" d="M9.5 0c0 2.22 1.57 2.36.5 5.5"/>
  <path fill="none" stroke="#6c707e" stroke-linecap="round" stroke-miterlimit="10" d="M15.58 15.9c.5.35 1.03.6 1.77.6.98 0 2.14-.43 2.14-2.45 0-.83-1.17-5.15-2.14-7.46-.71-1.7-2.01-2.08-3.22-2.08-1.93 0-2.08 1-4.14 1s-2.21-1-4.14-1c-1.21 0-2.51.38-3.22 2.08C1.66 8.9.49 13.23.49 14.05c0 2.03 1.17 2.45 2.14 2.45.78 0 1.33-.28 1.86-.66"/>
  <path fill="#f2fcf3" stroke="#208a3c" stroke-miterlimit="10" d="M13.85 14.78c.4-.28.65-.75.65-1.24s-.24-.96-.65-1.24l-5-3.49a1.492 1.492 0 0 0-2.35 1.24v6.98c0 .56.31 1.08.8 1.34s1.09.22 1.55-.1l5-3.49Z"/>
</svg>
