<!-- Copyright © 2000–2024 JetBrains s.r.o. -->
<svg width="16" height="16" viewBox="0 0 16 16" xmlns="http://www.w3.org/2000/svg">
  <path fill="none" stroke="#CED0D6" stroke-miterlimit="10" d="M7.519 0c0 1.817 1.338 1.933.481 4.5"/>
  <path fill="none" stroke="#CED0D6" stroke-linecap="round" stroke-miterlimit="10" d="M12.595 13.135c.321.217.703.365 1.211.365.772 0 1.693-.354 1.693-2.044 0-.689-1.234-5.45-1.786-6.418-.508-.892-1.568-1.538-2.522-1.538-.573 0-1.011.247-1.397.466-.462.263-.939.534-1.794.534s-1.332-.271-1.795-.534c-.386-.219-.823-.466-1.396-.466-.954 0-2.015.646-2.522 1.537-.552.969-1.786 5.729-1.786 6.419 0 1.689.921 2.044 1.693 2.044.561 0 .967-.182 1.307-.438"/>
  <path fill="none" stroke="#57965C" stroke-miterlimit="10" d="M11.028 10.147a1.004 1.004 0 0 1 0 1.706l-4.002 2.496a1 1 0 0 1-1.526-.853V8.504a1 1 0 0 1 1.526-.853z"/>
</svg>
