<svg viewBox="0 0 20 20" width="20" height="20" xmlns="http://www.w3.org/2000/svg">
  <path fill="#6c707e" fill-rule="evenodd" d="M16.38 11.48a6.225 6.225 0 0 1-3.47 4.22l-1-1.12-1.83 1.7a6.271 6.271 0 0 1-4.95-2.54c.18.06.37.1.56.1.28.01.56-.1.56-.56V8.67c.02-.41-.3-.77-.71-.79-.78-.03-1.4 1.44-1.64 2.17-.02-1.83.77-3.58 2.16-4.78.9-.78 2.01-1.29 3.18-1.47-.75.38-1.26 1.11-1.34 1.95 0 1.08.66.95.85.79v6.22c.14.36.49.6.87.6.59-.11 1.15-.37 1.63-.74V7.59c-.04-.55-.33-1.04-.79-1.34.44-.06.9.04 1.27.3a6.272 6.272 0 0 1 3.84-2.16 4.985 4.985 0 0 0-1.82 3.37v4.95c.68.66 1.72-.29 2.63-1.23Z"/>
  <path fill="none" stroke="#6c707e" stroke-linecap="round" stroke-miterlimit="10" stroke-width=".75" d="M6.29 18.72c1.14.49 2.39.78 3.71.78 5.24 0 9.5-4.26 9.5-9.5S15.24.5 10 .5.5 4.76.5 10c0 1.32.29 2.57.78 3.71"/>
  <path fill="none" stroke="#e35252" stroke-miterlimit="10" d="M2.55 15.5c-1.1-.02-2.02.85-2.04 1.95-.02 1.1.85 2.02 1.95 2.04h.09c1.1-.02 1.98-.94 1.96-2.04a2.001 2.001 0 0 0-1.95-1.96Z"/>
</svg>
