<!-- Copyright © 2000–2024 JetBrains s.r.o. -->
<svg width="16" height="16" viewBox="0 0 16 16" xmlns="http://www.w3.org/2000/svg">
  <path fill="none" stroke="#6C707E" stroke-miterlimit="10" d="M7.519 0c0 1.817 1.338 1.933.481 4.5"/>
  <path fill="none" stroke="#6C707E" stroke-linecap="round" stroke-miterlimit="10" d="M13.453 13.465c.113.018.226.035.354.035.772 0 1.693-.354 1.693-2.044 0-.689-1.234-5.45-1.786-6.418-.508-.892-1.568-1.538-2.522-1.538-.573 0-1.011.247-1.397.466-.462.263-.939.534-1.794.534s-1.332-.271-1.795-.534C5.82 3.747 5.383 3.5 4.81 3.5c-.954 0-2.015.646-2.522 1.537-.552.969-1.786 5.729-1.786 6.419 0 1.689.921 2.044 1.693 2.044.128 0 .241-.017.354-.035"/>
  <path fill="none" stroke="#DB3B4B" d="M10 7.5H6A1.5 1.5 0 0 0 4.5 9v4A1.5 1.5 0 0 0 6 14.5h4a1.5 1.5 0 0 0 1.5-1.5V9A1.5 1.5 0 0 0 10 7.5Z"/>
</svg>
