<svg viewBox="0 0 16 16" width="16" height="16" xmlns="http://www.w3.org/2000/svg">
  <path fill="none" stroke="#6c707e" stroke-miterlimit="10" d="M7.52 0c0 1.82 1.34 1.93.48 4.5"/>
  <path fill="none" stroke="#6c707e" stroke-linecap="round" stroke-miterlimit="10" d="M13.45 13.47c.11.02.23.03.35.03.77 0 1.69-.35 1.69-2.04 0-.69-1.23-5.45-1.79-6.42-.51-.89-1.57-1.54-2.52-1.54-.57 0-1.01.25-1.4.47-.46.26-.94.53-1.79.53s-1.33-.27-1.79-.53c-.39-.22-.82-.47-1.4-.47-.95 0-2.01.65-2.52 1.54-.55.97-1.79 5.73-1.79 6.42 0 1.69.92 2.04 1.69 2.04.13 0 .24-.02.35-.03"/>
  <rect width="7" height="7" x="4.5" y="7.5" fill="#fff7f7" stroke="#db3b4b" rx="1.5" ry="1.5"/>
</svg>
