<svg viewBox="0 0 16 16" width="16" height="16" xmlns="http://www.w3.org/2000/svg">
  <path fill="none" stroke="#6c707e" stroke-miterlimit="10" d="M7.52 0c0 1.82 1.34 1.93.48 4.5"/>
  <path fill="none" stroke="#6c707e" stroke-linecap="round" stroke-miterlimit="10" d="M12.9 13.3c.26.12.55.2.91.2.77 0 1.69-.35 1.69-2.04 0-.69-1.23-5.45-1.79-6.42-.51-.89-1.57-1.54-2.52-1.54-.57 0-1.01.25-1.4.47-.46.26-.94.53-1.79.53s-1.33-.27-1.79-.53c-.39-.22-.82-.47-1.4-.47-.95 0-2.01.65-2.52 1.54C1.74 6.01.5 10.77.5 11.46c0 1.69.92 2.04 1.69 2.04.11 0 .21-.02.31-.03"/>
  <path fill="#f2fcf3" stroke="#208a3c" stroke-miterlimit="10" d="M6.5 11v2.5c0 .55-.45 1-1 1s-1-.45-1-1v-5c0-.55.45-1 1-1s1 .45 1 1V11Zm1.57-3.32c-.3-.22-.7-.25-1.03-.07s-.54.51-.54.89v5c0 .37.21.72.54.89s.73.14 1.03-.07l3.51-2.5c.26-.19.42-.49.42-.81s-.16-.63-.42-.81L8.07 7.7Z"/>
</svg>
