<svg viewBox="0 0 16 16" width="16" height="16" xmlns="http://www.w3.org/2000/svg">
  <path fill="none" stroke="#6c707e" stroke-miterlimit="10" d="M7.52 0c0 1.82 1.34 1.93.48 4.5"/>
  <path fill="none" stroke="#6c707e" stroke-linecap="round" stroke-miterlimit="10" d="M12.6 13.13c.32.22.7.37 1.21.37.77 0 1.69-.35 1.69-2.04 0-.69-1.23-5.45-1.79-6.42-.51-.89-1.57-1.54-2.52-1.54-.57 0-1.01.25-1.4.47-.46.26-.94.53-1.79.53s-1.33-.27-1.79-.53c-.39-.22-.82-.47-1.4-.47-.95 0-2.01.65-2.52 1.54C1.74 6.01.5 10.77.5 11.46c0 1.69.92 2.04 1.69 2.04.56 0 .97-.18 1.31-.44"/>
  <path fill="#f2fcf3" stroke="#208a3c" stroke-miterlimit="10" d="M11.03 10.15c.29.18.47.51.47.85s-.18.67-.47.85l-4 2.5a1.003 1.003 0 0 1-1.53-.85V8.51c0-.58.47-1 1-1 .18 0 .37.05.53.15l4 2.5Z"/>
</svg>
