<svg viewBox="0 0 16 16" width="16" height="16" xmlns="http://www.w3.org/2000/svg">
  <path fill="none" stroke="#ced0d6" stroke-miterlimit="10" d="M7.52 0c0 1.82 1.34 1.93.48 4.5"/>
  <path fill="none" stroke="#ced0d6" stroke-miterlimit="10" d="M13.5 13.47c.1.01.2.03.31.03.77 0 1.69-.35 1.69-2.04 0-.69-1.23-5.45-1.79-6.42-.51-.89-1.57-1.54-2.52-1.54-.57 0-1.01.25-1.4.47-.46.26-.94.53-1.79.53s-1.33-.27-1.79-.53c-.39-.22-.82-.47-1.4-.47-.95 0-2.01.65-2.52 1.54C1.74 6.01.5 10.77.5 11.46c0 1.69.92 2.04 1.69 2.04.11 0 .21-.02.31-.03"/>
  <path fill="#25324d" stroke="#548af7" stroke-miterlimit="10" d="M6.75 8.5c0-.55-.45-1-1-1H5.5c-.55 0-1 .45-1 1v5c0 .55.45 1 1 1h.25c.55 0 1-.45 1-1v-5Zm4.75 0c0-.55-.45-1-1-1h-.25c-.55 0-1 .45-1 1v5c0 .55.45 1 1 1h.25c.55 0 1-.45 1-1v-5Z"/>
</svg>
