<svg viewBox="0 0 16 16" width="16" height="16" xmlns="http://www.w3.org/2000/svg">
  <path fill="none" stroke="#ced0d6" stroke-miterlimit="10" d="M13.81 13.5c-1.09 0-1.63-.66-2.14-1.29-.66-.8-1.4-1.71-3.66-1.71s-3.01.91-3.66 1.71c-.52.63-1.05 1.29-2.14 1.29-.77 0-1.69-.35-1.69-2.04 0-.69 1.23-5.45 1.79-6.42.51-.89 1.57-1.54 2.52-1.54.57 0 1.01.25 1.4.47.46.26.94.53 1.79.53s1.33-.27 1.79-.53c.39-.22.82-.47 1.4-.47.95 0 2.01.65 2.52 1.54.55.97 1.79 5.73 1.79 6.42 0 1.69-.92 2.04-1.69 2.04Z"/>
  <rect width="1.43" height="1.43" x="10.57" y="6" fill="#ced0d6" rx=".25" ry=".25"/>
  <rect width="1.38" height="1.38" x="9" y="7.62" fill="#ced0d6" rx=".25" ry=".25"/>
  <circle cx="5.5" cy="7.5" r="1.5" fill="#ced0d6"/>
  <path fill="none" stroke="#ced0d6" stroke-miterlimit="10" d="M7.52 0c0 1.82 1.34 1.93.48 4.5"/>
</svg>
