<!-- Copyright © 2000–2024 JetBrains s.r.o. -->
<svg width="16" height="16" viewBox="0 0 16 16" xmlns="http://www.w3.org/2000/svg">
  <path fill="none" stroke="#CED0D6" stroke-miterlimit="10" d="M7.519 0c0 1.817 1.338 1.933.481 4.5"/>
  <path fill="none" stroke="#CED0D6" stroke-linecap="round" stroke-miterlimit="10" d="M12.895 13.303c.258.119.551.197.912.197.772 0 1.693-.354 1.693-2.044 0-.689-1.234-5.45-1.786-6.418-.508-.892-1.568-1.538-2.522-1.538-.573 0-1.011.247-1.397.466-.462.263-.939.534-1.794.534s-1.332-.271-1.795-.534C5.82 3.747 5.383 3.5 4.81 3.5c-.954 0-2.015.646-2.522 1.537-.552.969-1.786 5.729-1.786 6.419 0 1.689.921 2.044 1.693 2.044.11 0 .208-.015.307-.028"/>
  <path fill="none" stroke="#57965C" stroke-miterlimit="10" d="M6.5 11v2.501a1 1 0 0 1-2-.001v-5a1 1 0 0 1 2-.001zm1.573-3.315a.998.998 0 0 0-1.575.812V13.5a.996.996 0 0 0 1.575.812l3.514-2.502a.995.995 0 0 0 0-1.624z"/>
</svg>
