<!-- Copyright © 2000–2024 JetBrains s.r.o. -->
<svg width="20" height="20" viewBox="0 0 20 20" xmlns="http://www.w3.org/2000/svg">
  <path fill="none" stroke="#CED0D6" stroke-miterlimit="10" stroke-width="1.5" d="M9.75 0c0 2.221 1.321 2.362.25 5.5"/>
  <path fill="none" stroke="#CED0D6" stroke-linecap="round" stroke-miterlimit="10" stroke-width="1.5" d="M16.749 16.22q.195.029.413.03c.953 0 2.088-.408 2.088-2.351 0-.793-1.137-4.938-2.08-7.154-.694-1.629-1.96-1.996-3.136-1.996-1.879 0-2.028.958-4.033.958s-2.155-.958-4.033-.958c-1.177 0-2.443.366-3.136 1.996-.944 2.216-2.08 6.361-2.08 7.154 0 1.943 1.136 2.351 2.089 2.351a3 3 0 0 0 .479-.04"/>
  <path fill="none" stroke="#CED0D6" stroke-miterlimit="10" stroke-width="1.5" d="M8.533 15.875a1.376 1.376 0 0 1-2.75 0v-5.75a1.376 1.376 0 0 1 2.75 0zm5.75 0a1.376 1.376 0 0 1-2.75 0v-5.75a1.376 1.376 0 0 1 2.75 0z"/>
</svg>
