<!-- Copyright © 2000–2024 JetBrains s.r.o. -->
<svg width="20" height="20" viewBox="0 0 20 20" xmlns="http://www.w3.org/2000/svg">
  <path fill="#6C707E" fill-rule="evenodd" d="M16.384 11.475a6.23 6.23 0 0 1-3.468 4.22l-1-1.125-1.829 1.701a6.26 6.26 0 0 1-4.955-2.543q.27.09.555.105c.277.014.562-.098.562-.564V8.663a.75.75 0 0 0-.714-.789c-.781-.031-1.4 1.439-1.637 2.171a6.24 6.24 0 0 1 2.159-4.779 6.33 6.33 0 0 1 3.184-1.469 2.44 2.44 0 0 0-1.34 1.951c0 1.077.656.946.849.789v6.215c.142.36.488.597.875.599a3.8 3.8 0 0 0 1.625-.738V7.582a1.75 1.75 0 0 0-.786-1.342c.445-.065.897.041 1.267.296a6.3 6.3 0 0 1 3.841-2.163 4.97 4.97 0 0 0-1.823 3.375v4.954c.681.66 1.717-.29 2.634-1.229z"/>
  <path fill="none" stroke="#6C707E" stroke-linecap="round" stroke-miterlimit="10" stroke-width="1.5" d="M6.825 18.675A9.2 9.2 0 0 0 10 19.25c5.101 0 9.25-4.149 9.25-9.25S15.101.75 10 .75.75 4.899.75 10c0 1.117.21 2.183.575 3.175"/>
  <path fill="#369650" d="M2.5 20a2.5 2.5 0 1 0 0-5 2.5 2.5 0 0 0 0 5"/>
</svg>
