<svg xmlns="http://www.w3.org/2000/svg" width="16" height="16" viewBox="0 0 16 16">
  <g fill-rule="evenodd">
    <path fill="#6E6E6E" d="M10.8232 7.4268C10.6852 7.4268 10.5732 7.3148 10.5732 7.1768L10.5732 6.2498C10.5732 6.1128 10.6852 5.9998 10.8232 5.9998L11.7502 5.9998C11.8872 5.9998 12.0002 6.1128 12.0002 6.2498L12.0002 7.1768C12.0002 7.3148 11.8872 7.4268 11.7502 7.4268L10.8232 7.4268M9.25 9C9.112 9 9 8.888 9 8.75L9 7.872C9 7.733 9.112 7.622 9.25 7.622L10.128 7.622C10.267 7.622 10.378 7.733 10.378 7.872L10.378 8.75C10.378 8.888 10.267 9 10.128 9L9.25 9M5.5 9C4.672 9 4 8.328 4 7.5 4 6.672 4.672 6 5.5 6 6.328 6 7 6.672 7 7.5 7 8.328 6.328 9 5.5 9"/>
    <path fill="#6E6E6E" d="M13.8066,13 C11.7306,13 12.2556,10 7.9996,10 C3.7436,10 4.2696,13 2.1936,13 C1.3036,13 0.9996,12.46 0.9996,11.456 C0.9996,10.889 2.1796,6.233 2.7206,5.285 C3.1806,4.478 4.1026,4 4.8086,4 C5.8276,4 6.2636,5 7.9996,5 C9.7366,5 10.1716,4 11.1916,4 C11.8976,4 12.8196,4.478 13.2796,5.285 C13.8206,6.233 14.9996,10.889 14.9996,11.456 C14.9996,12.46 14.6966,13 13.8066,13 M14.1486,4.79 C13.5476,3.736 12.3316,3 11.1916,3 C10.4856,3 9.9646,3.295 9.5466,3.531 C9.2116,3.722 8.9106,3.891 8.4746,3.963 C8.4266,3.359 8.3116,3.047 8.2046,2.767 C8.0936,2.472 7.9976,2.216 7.9976,1.5 C7.9976,0.787 8.3436,0.399 8.7176,0 L7.4506,0 C7.2026,0.381 7.0016,0.853 7.0016,1.5 C7.0016,2.397 7.1466,2.78 7.2746,3.118 C7.3566,3.335 7.4326,3.555 7.4726,3.95 C7.0666,3.874 6.7736,3.713 6.4526,3.531 C6.0356,3.295 5.5146,3 4.8086,3 C3.6676,3 2.4526,3.736 1.8516,4.79 C1.2456,5.853 -0.0004,10.672 -0.0004,11.456 C-0.0004,13.752 1.5336,14 2.1936,14 C3.5216,14 4.1886,13.184 4.7236,12.527 C5.3646,11.742 5.9686,11 7.9996,11 C10.0316,11 10.6356,11.742 11.2766,12.527 C11.8116,13.184 12.4786,14 13.8066,14 C14.4666,14 15.9996,13.752 15.9996,11.456 C15.9996,10.672 14.7536,5.853 14.1486,4.79"/>
  </g>
</svg>
