<svg xmlns="http://www.w3.org/2000/svg" width="16" height="16" viewBox="0 0 16 16">
  <path fill="#AFB1B3" fill-rule="evenodd" d="M12,7.1768 C12,7.3148 11.888,7.4268 11.75,7.4268 L10.823,7.4268 C10.686,7.4268 10.573,7.3148 10.573,7.1768 L10.573,6.2498 C10.573,6.1128 10.686,5.9998 10.823,5.9998 L11.75,5.9998 C11.888,5.9998 12,6.1128 12,6.2498 L12,7.1768 Z M10.378,8.7498 C10.378,8.8878 10.266,8.9998 10.128,8.9998 L9.25,8.9998 C9.112,8.9998 9,8.8878 9,8.7498 L9,7.8718 C9,7.7348 9.112,7.6218 9.25,7.6218 L10.128,7.6218 C10.266,7.6218 10.378,7.7348 10.378,7.8718 L10.378,8.7498 Z M5.5,8.9998 C4.672,8.9998 4,8.3278 4,7.4998 C4,6.6718 4.672,5.9998 5.5,5.9998 C6.328,5.9998 7,6.6718 7,7.4998 C7,8.3278 6.328,8.9998 5.5,8.9998 L5.5,8.9998 Z M14.148,4.7898 C13.548,3.7368 12.332,2.9998 11.191,2.9998 C10.485,2.9998 9.965,3.2948 9.547,3.5308 C9.212,3.7218 8.911,3.8908 8.475,3.9628 C8.427,3.3598 8.312,3.0468 8.205,2.7668 C8.094,2.4718 7.998,2.2158 7.998,1.4998 C7.998,0.7868 8.344,0.3998 8.718,-0.0002 L7.45,-0.0002 C7.203,0.3808 7.002,0.8528 7.002,1.4998 C7.002,2.3978 7.146,2.7808 7.274,3.1178 C7.356,3.3348 7.433,3.5548 7.473,3.9498 C7.066,3.8738 6.773,3.7128 6.453,3.5308 C6.035,3.2948 5.515,2.9998 4.809,2.9998 C3.668,2.9998 2.452,3.7368 1.852,4.7898 C1.246,5.8528 0,10.6718 0,11.4558 C0,13.7518 1.533,13.9998 2.193,13.9998 C3.521,13.9998 4.188,13.1838 4.724,12.5278 C5.364,11.7418 5.969,10.9998 8,10.9998 C10.031,10.9998 10.636,11.7418 11.276,12.5278 C11.812,13.1838 12.479,13.9998 13.807,13.9998 C14.467,13.9998 16,13.7518 16,11.4558 C16,10.6718 14.754,5.8528 14.148,4.7898 L14.148,4.7898 Z"/>
</svg>
