<svg xmlns="http://www.w3.org/2000/svg" width="16" height="16" viewBox="0 0 16 16">
  <g fill-rule="evenodd">
    <path fill="#6E6E6E" d="M12,6.1768 C12,6.3148 11.888,6.4268 11.75,6.4268 L10.823,6.4268 C10.686,6.4268 10.573,6.3148 10.573,6.1768 L10.573,5.2498 C10.573,5.1128 10.686,4.9998 10.823,4.9998 L11.75,4.9998 C11.888,4.9998 12,5.1128 12,5.2498 L12,6.1768 Z M10.378,7.7498 C10.378,7.8878 10.266,7.9998 10.128,7.9998 L9.25,7.9998 C9.112,7.9998 9,7.8878 9,7.7498 L9,6.8718 C9,6.7348 9.112,6.6218 9.25,6.6218 L10.128,6.6218 C10.266,6.6218 10.378,6.7348 10.378,6.8718 L10.378,7.7498 Z M5.5,7.9998 C4.672,7.9998 4,7.3278 4,6.4998 C4,5.6718 4.672,4.9998 5.5,4.9998 C6.328,4.9998 7,5.6718 7,6.4998 C7,7.3278 6.328,7.9998 5.5,7.9998 L5.5,7.9998 Z M14.148,3.7898 C13.548,2.7368 12.332,1.9998 11.191,1.9998 C10.485,1.9998 9.965,2.2948 9.547,2.5308 C9.208,2.7238 8.9,2.8938 8.455,2.9648 C8.4,2.5838 8.3,2.3588 8.205,2.1618 C8.094,1.9318 7.998,1.7328 7.998,1.1728 C7.998,0.6148 8.344,0.3128 8.718,-0.0002 L7.45,-0.0002 C7.203,0.2978 7.002,0.6658 7.002,1.1728 C7.002,1.8738 7.146,2.1728 7.274,2.4378 C7.342,2.5778 7.405,2.7248 7.448,2.9448 C7.056,2.8648 6.767,2.7088 6.453,2.5308 C6.035,2.2948 5.515,1.9998 4.809,1.9998 C3.668,1.9998 2.452,2.7368 1.852,3.7898 C1.246,4.8528 0,9.6718 0,10.4558 C0,12.7518 1.533,12.9998 2.193,12.9998 C2.998,12.9998 3.559,12.6988 3.995,12.3168 L3.995,9.9998 C3.995,9.4478 4.442,8.9998 4.995,8.9998 L6,8.9998 L6.795,8.9998 L8,8.9998 L8,9.0018 C8.139,9.0008 8.293,8.9998 8.295,8.9998 C8.507,8.9998 8.714,9.0678 8.886,9.1938 L12.359,11.7358 C12.728,12.0038 12.949,12.4258 12.985,12.8768 C13.229,12.9518 13.498,12.9998 13.807,12.9998 C14.467,12.9998 16,12.7518 16,10.4558 C16,9.6718 14.754,4.8528 14.148,3.7898 L14.148,3.7898 Z"/>
    <path fill="#59A869" d="M7.7998,10.0039 L7.7998,15.9999 L8.2948,15.9959 L11.7688,13.4539 C11.9138,13.3479 11.9998,13.1789 11.9998,12.9979 C11.9998,12.8169 11.9138,12.6489 11.7688,12.5419 L8.2948,9.9999 L7.7998,10.0039 Z M4.9948,15.9999 L6.7948,15.9999 L6.7948,9.9999 L4.9948,9.9999 L4.9948,15.9999 Z"/>
  </g>
</svg>
