<svg viewBox="0 0 13 13" width="13" height="13" xmlns="http://www.w3.org/2000/svg">
  <path fill="#afb1b3" fill-rule="evenodd" d="M6.5 0a6.5 6.5 0 1 0 0 13 6.5 6.5 0 0 0 0-13Zm0 12.5c-3.31 0-6-2.69-6-6s2.69-6 6-6 6 2.69 6 6-2.69 6-6 6Z"/>
  <path fill="#afb1b3" fill-rule="evenodd" d="M10.65 7.46A4.058 4.058 0 0 1 8.4 10.2l-.65-.73-1.19 1.11a4.098 4.098 0 0 1-3.22-1.65c.12.04.24.06.36.07.18 0 .37-.06.37-.37V5.64c.01-.27-.19-.5-.46-.51-.51-.02-.91.93-1.07 1.41-.01-1.19.5-2.33 1.4-3.11.59-.51 1.3-.84 2.07-.95-.49.25-.82.73-.87 1.27 0 .7.43.62.55.51V8.3c.09.23.32.39.57.39.39-.07.75-.24 1.06-.48V4.94c-.02-.35-.21-.68-.51-.87.29-.04.58.03.82.19.64-.76 1.52-1.26 2.5-1.41-.67.55-1.1 1.34-1.18 2.2v3.22c.44.43 1.11-.19 1.71-.8Z"/>
</svg>
