<svg viewBox="0 0 16 16" width="16" height="16" xmlns="http://www.w3.org/2000/svg">
  <path fill="#6e6e6e" fill-rule="evenodd" d="M13.11 9.18a5.017 5.017 0 0 1-2.77 3.38l-.8-.9-1.46 1.36a4.992 4.992 0 0 1-3.96-2.03c.14.05.29.08.44.08.22.01.45-.08.45-.45V6.94a.596.596 0 0 0-.57-.63c-.62-.02-1.12 1.15-1.31 1.74-.01-1.47.62-2.86 1.73-3.82.72-.62 1.6-1.03 2.55-1.18-.6.3-1.01.89-1.07 1.56 0 .86.53.76.68.63v4.97c.11.29.39.48.7.48.47-.09.92-.29 1.3-.59V6.07c-.03-.44-.26-.83-.63-1.07.36-.05.72.03 1.01.24.78-.93 1.87-1.54 3.07-1.73-.83.67-1.35 1.64-1.46 2.7v3.96c.55.53 1.37-.23 2.11-.98Z"/>
  <circle cx="2" cy="14" r="2" fill="#5fb865"/>
  <path fill="#6e6e6e" fill-rule="evenodd" d="M8 0C3.58 0 0 3.58 0 8c0 1.18.26 2.29.72 3.3.15-.07.31-.13.47-.17A7.43 7.43 0 0 1 .5 8C.5 3.86 3.86.5 8 .5s7.5 3.36 7.5 7.5-3.36 7.5-7.5 7.5c-1.12 0-2.17-.25-3.13-.69-.05.16-.1.32-.17.47 1.01.46 2.12.72 3.3.72 4.42 0 8-3.58 8-8s-3.58-8-8-8Z"/>
</svg>
