<svg viewBox="0 0 16 16" width="16" height="16" xmlns="http://www.w3.org/2000/svg">
  <path fill="#6e6e6e" d="M14.15 3.79C13.55 2.74 12.33 2 11.19 2c-.71 0-1.23.29-1.64.53-.34.19-.65.36-1.09.43-.05-.38-.15-.61-.25-.8C8.1 1.93 8 1.73 8 1.17S8.35.31 8.72 0H7.45C7.2.3 7 .67 7 1.17c0 .7.14 1 .27 1.26.07.14.13.29.17.51-.39-.08-.68-.24-1-.41C6.02 2.29 5.5 2 4.8 2c-1.14 0-2.36.74-2.96 1.79-.61 1.06-1.85 5.88-1.85 6.67 0 2.3 1.53 2.54 2.19 2.54.8 0 1.36-.3 1.8-.68V10c0-.55.45-1 1-1h3.3c.21 0 .42.07.59.19l3.47 2.54c.37.27.59.69.63 1.14.24.08.51.12.82.12.66 0 2.19-.25 2.19-2.54 0-.78-1.25-5.6-1.85-6.67ZM5.5 8C4.67 8 4 7.33 4 6.5S4.67 5 5.5 5 7 5.67 7 6.5 6.33 8 5.5 8Zm4.88-.25c0 .14-.11.25-.25.25h-.88C9.11 8 9 7.89 9 7.75v-.88c0-.14.11-.25.25-.25h.88c.14 0 .25.11.25.25v.88ZM12 6.18c0 .14-.11.25-.25.25h-.93c-.14 0-.25-.11-.25-.25v-.93c0-.14.11-.25.25-.25h.93c.14 0 .25.11.25.25v.93Z"/>
  <path fill="#59a869" d="M5 10h1.8v6H5v-6Zm2.8 0v6h.49l3.47-2.54c.15-.11.23-.28.23-.46s-.09-.35-.23-.46L8.29 10H7.8Z"/>
</svg>
