<svg viewBox="0 0 16 16" width="16" height="16" xmlns="http://www.w3.org/2000/svg">
  <path fill="#6e6e6e" d="M14.15 4.79C13.55 3.74 12.33 3 11.19 3c-.71 0-1.23.29-1.64.53-.34.19-.64.36-1.07.43-.05-.6-.16-.92-.27-1.2C8.1 2.47 8 2.21 8 1.49s.35-1.1.72-1.5H7.45C7.2.37 7 .84 7 1.49c0 .9.14 1.28.27 1.62.08.22.16.44.2.83-.41-.08-.7-.24-1.02-.42-.42-.24-.94-.53-1.64-.53-1.14 0-2.36.74-2.96 1.79C1.24 5.84 0 10.66 0 11.45c0 2.3 1.53 2.54 2.19 2.54 1.33 0 2-.82 2.53-1.47.64-.79 1.25-1.53 3.28-1.53s2.64.74 3.28 1.53c.54.66 1.2 1.47 2.53 1.47.66 0 2.19-.25 2.19-2.54 0-.78-1.25-5.6-1.85-6.67ZM5.5 9C4.67 9 4 8.33 4 7.5S4.67 6 5.5 6 7 6.67 7 7.5 6.33 9 5.5 9Zm4.88-.25c0 .14-.11.25-.25.25h-.88C9.11 9 9 8.89 9 8.75v-.88c0-.14.11-.25.25-.25h.88c.14 0 .25.11.25.25v.88ZM12 7.18c0 .14-.11.25-.25.25h-.93c-.14 0-.25-.11-.25-.25v-.93c0-.14.11-.25.25-.25h.93c.14 0 .25.11.25.25v.93Z"/>
</svg>
