<svg viewBox="0 0 16 16" width="16" height="16" xmlns="http://www.w3.org/2000/svg">
  <path fill="#afb1b3" d="M14.15 3.79C13.55 2.74 12.33 2 11.19 2c-.71 0-1.23.29-1.64.53-.34.19-.65.36-1.09.43-.05-.38-.15-.61-.25-.8C8.1 1.93 8 1.73 8 1.17S8.35.31 8.72 0H7.45C7.2.3 7 .67 7 1.17c0 .7.14 1 .27 1.26.07.14.13.29.17.51-.39-.08-.68-.24-1-.41C6.02 2.29 5.5 2 4.8 2c-1.14 0-2.36.74-2.96 1.79-.61 1.06-1.85 5.88-1.85 6.67 0 2.3 1.53 2.54 2.19 2.54 1.33 0 2-.82 2.53-1.47.09-.11.18-.22.28-.33v-.39C4.99 9.62 5.8 9 6.6 9c.35 0 .71.11 1.06.33l1.17.73c1.37.18 1.9.81 2.44 1.47.54.66 1.2 1.47 2.53 1.47.66 0 2.19-.25 2.19-2.54 0-.78-1.25-5.6-1.85-6.67ZM5.5 8C4.67 8 4 7.33 4 6.5S4.67 5 5.5 5 7 5.67 7 6.5 6.33 8 5.5 8Zm4.88-.25c0 .14-.11.25-.25.25h-.88C9.11 8 9 7.89 9 7.75v-.88c0-.14.11-.25.25-.25h.88c.14 0 .25.11.25.25v.88ZM12 6.18c0 .14-.11.25-.25.25h-.93c-.14 0-.25-.11-.25-.25v-.93c0-.14.11-.25.25-.25h.93c.14 0 .25.11.25.25v.93Z"/>
  <path fill="#499c54" d="M7.14 15.82c-.63.39-1.14.11-1.14-.63V10.8c0-.74.51-1.02 1.14-.63l3.39 2.12c.63.39.63 1.03 0 1.42l-3.39 2.12Z"/>
</svg>
