<!-- Copyright © 2000–2024 JetBrains s.r.o. -->
<svg width="16" height="16" viewBox="0 0 16 16" xmlns="http://www.w3.org/2000/svg">
  <path fill="none" stroke="#CED0D6" stroke-miterlimit="10" stroke-width=".75" d="M8 15.5a7.5 7.5 0 1 0 0-15 7.5 7.5 0 0 0 0 15Z"/>
  <path fill="#CED0D6" fill-rule="evenodd" d="M13.107 9.18a4.99 4.99 0 0 1-2.774 3.376l-.8-.9-1.463 1.361a5.01 5.01 0 0 1-3.964-2.034q.217.071.444.084c.222.012.45-.078.45-.451V6.931a.6.6 0 0 0-.571-.631c-.625-.025-1.12 1.151-1.31 1.737a5 5 0 0 1 1.727-3.823 5.06 5.06 0 0 1 2.547-1.175A1.96 1.96 0 0 0 6.321 4.6c0 .862.525.757.679.631v4.972a.755.755 0 0 0 .7.479 3.06 3.06 0 0 0 1.3-.59V6.067a1.4 1.4 0 0 0-.629-1.074c.356-.052.718.033 1.014.237a5.04 5.04 0 0 1 3.073-1.73A3.98 3.98 0 0 0 11 6.2v3.963c.545.528 1.374-.232 2.107-.983"/>
</svg>
