<svg width="40" height="40" viewBox="0 0 40 40" xmlns="http://www.w3.org/2000/svg">
  <path fill="#07132d" d="M20 1C9.507 1 1 9.507 1 20s8.507 19 19 19 19-8.507 19-19S30.493 1 20 1Zm0 36.812c-9.838 0-17.812-7.975-17.812-17.812S10.162 2.188 20 2.188 37.812 10.163 37.812 20 29.837 37.812 20 37.812Z"/>
  <path fill="#07132d" d="M32.129 22.803a11.844 11.844 0 0 1-6.588 8.018l-1.9-2.137-3.475 3.232a11.901 11.901 0 0 1-9.414-4.831c.342.111.696.178 1.055.199.527.024 1.069-.185 1.069-1.071v-8.752a1.425 1.425 0 0 0-1.348-1.498h-.017c-1.484-.04-2.651 2.734-3.102 4.125a11.857 11.857 0 0 1 4.102-9.08 12.018 12.018 0 0 1 6.049-2.791 4.646 4.646 0 0 0-2.546 3.707c0 2.047 1.247 1.798 1.613 1.499v11.809a1.796 1.796 0 0 0 1.662 1.138 7.273 7.273 0 0 0 3.088-1.401V15.41a3.327 3.327 0 0 0-1.494-2.551 3.382 3.382 0 0 1 2.408.563 11.967 11.967 0 0 1 7.298-4.109 9.444 9.444 0 0 0-3.463 6.412v9.412c1.294 1.254 3.263-.551 5.004-2.335Z"/>
</svg>
